<svg width="709" height="592" viewBox="0 0 709 592" fill="none" xmlns="http://www.w3.org/2000/svg">
<path fill-rule="evenodd" clip-rule="evenodd" d="M232.259 0.956929C315.913 -2.88605 379.941 67.1148 438.413 127.064C495.875 185.978 561.946 251.112 556.329 333.217C550.878 412.91 474.465 463.165 412.015 512.972C358.853 555.371 300.156 595.394 232.259 591.68C167.128 588.117 114.591 542.985 71.1506 494.326C30.6461 448.956 6.19168 393.856 1.51365 333.217C-3.62594 266.595 6.10001 200.056 44.2152 145.173C91.0564 77.7242 150.228 4.72538 232.259 0.956929Z" fill="#EDF3FF"/>
<g clip-path="url(#clip0_135_2)">
<path d="M487.778 210.936C488.477 210.968 489.17 210.785 489.761 210.41C490.352 210.036 490.814 209.489 491.084 208.843C491.354 208.197 491.419 207.484 491.271 206.8C491.122 206.116 490.766 205.494 490.252 205.019C490.166 204.677 490.104 204.431 490.018 204.089C490.049 204.015 490.08 203.94 490.111 203.866C493.254 196.372 503.906 196.424 507.022 203.929C509.787 210.59 513.309 217.263 514.176 224.306C514.558 227.419 514.397 230.575 513.7 233.633C520.196 219.463 523.569 204.061 523.591 188.473C523.592 184.561 523.375 180.653 522.94 176.765C522.58 173.578 522.081 170.414 521.443 167.273C517.962 150.227 510.486 134.25 499.631 120.655C494.377 117.788 490.128 113.38 487.457 108.024C486.489 106.099 485.805 104.044 485.426 101.922C486.019 102 487.661 92.9738 487.214 92.42C488.04 91.1667 489.518 90.5437 490.42 89.3207C494.906 83.2382 501.087 84.3002 504.314 92.5658C511.207 96.0448 511.274 101.814 507.044 107.363C504.353 110.894 503.984 115.671 501.623 119.45C501.866 119.761 502.118 120.062 502.361 120.373C506.801 126.083 510.671 132.214 513.916 138.678C512.998 131.509 514.353 122.871 516.663 117.303C519.293 110.959 524.222 105.616 528.563 100.131C533.777 93.5437 544.468 96.4187 545.387 104.77C545.396 104.85 545.404 104.931 545.413 105.012C544.768 105.376 544.137 105.762 543.52 106.17C542.744 106.689 542.143 107.429 541.795 108.295C541.447 109.161 541.369 110.111 541.571 111.022C541.773 111.933 542.245 112.762 542.926 113.4C543.607 114.037 544.464 114.455 545.387 114.597L545.481 114.612C545.251 116.935 544.845 119.238 544.266 121.5C549.835 143.035 537.813 150.879 520.647 151.231C520.268 151.426 519.899 151.62 519.52 151.805C522.779 161.042 524.824 170.664 525.602 180.428C526.042 186.189 526.016 191.976 525.524 197.732L525.553 197.528C526.797 191.127 530.212 185.351 535.221 181.176C542.661 175.065 553.171 172.814 561.197 167.902C565.061 165.537 570.012 168.593 569.338 173.072C569.327 173.144 569.316 173.215 569.305 173.287C568.108 173.774 566.943 174.336 565.817 174.968C565.172 175.331 564.541 175.718 563.923 176.126C563.148 176.644 562.546 177.385 562.199 178.25C561.851 179.116 561.773 180.067 561.975 180.978C562.177 181.889 562.649 182.717 563.33 183.355C564.011 183.993 564.868 184.41 565.79 184.553L565.885 184.567C565.953 184.577 566.011 184.587 566.079 184.596C564.035 189.478 561.165 193.97 557.597 197.878C554.115 216.678 539.16 218.461 523.163 212.987H523.153C521.398 220.614 518.855 228.038 515.565 235.139H488.457C488.36 234.838 488.273 234.527 488.185 234.226C490.695 234.384 493.214 234.234 495.686 233.779C493.675 231.311 491.664 228.824 489.653 226.356C489.608 226.31 489.565 226.261 489.526 226.21C488.506 224.947 487.476 223.694 486.456 222.431L486.455 222.429C486.401 218.557 486.845 214.695 487.777 210.937L487.778 210.936Z" fill="#AEFFA1"/>
<path d="M574.813 141.561C569.772 123.185 610.426 107.426 621.101 122.225C622.586 120.121 628.072 118.843 630.589 119.488C633.106 120.134 635.223 121.747 637.288 123.309C640.128 125.491 643.071 127.75 644.813 130.886C646.569 134.01 646.84 138.27 644.478 140.98C642.606 143.136 637.081 144.53 634.267 145.098C632.305 145.498 630.653 145.821 629.233 146.053C627.944 144.195 627.349 141.942 627.555 139.69C626.599 140.334 625.798 141.183 625.209 142.173C624.62 143.164 624.257 144.273 624.147 145.421C624.109 145.898 640.011 204.411 640.011 204.411C638.101 205.498 636.091 206.401 634.009 207.108C629.891 200.815 626.737 193.94 624.651 186.714C624.171 191.546 624.232 196.417 624.832 201.235C625.15 203.937 625.607 206.622 626.2 209.277C607.302 213.356 578.879 212.014 566.513 194.665C566.511 194.593 566.509 194.522 566.507 194.45C566.497 193.765 566.25 193.105 565.807 192.582C565.364 192.06 564.753 191.708 564.079 191.586C563.405 191.464 562.71 191.581 562.113 191.915C561.515 192.25 561.052 192.782 560.804 193.42C560.504 194.186 560.228 194.848 559.981 195.375C556.38 182.493 561.04 167.584 574.813 141.561Z" fill="#2F2E41"/>
<path d="M542.655 449.653V450.255C542.632 450.055 542.632 449.853 542.655 449.653Z" fill="#2F2E41"/>
<path d="M561.162 345.654C561.642 345.523 562.131 345.428 562.626 345.369C562.058 345.462 561.57 345.556 561.162 345.654Z" fill="#2F2E41"/>
<path d="M560.733 345.763C560.863 345.726 561.008 345.69 561.162 345.654C561.018 345.691 560.88 345.718 560.733 345.763Z" fill="#2F2E41"/>
<path d="M697.459 509.871H628.19C627.202 509.082 626.515 507.978 626.245 506.743C625.975 505.507 626.138 504.217 626.707 503.088C628.6 498.748 624.892 494.782 624.892 494.782C623.633 493.307 622.758 491.545 622.343 489.65C621.929 487.756 621.989 485.789 622.518 483.924C624.353 477.514 617.161 459.422 617.161 459.422C617.161 459.422 613.284 482.783 608.533 509.871H542.655C541.552 507.991 540.97 505.851 540.97 503.671C540.97 501.492 541.552 499.351 542.655 497.472C546.494 490.962 542.655 489.714 542.655 489.714C542.655 489.714 538.816 482.429 542.655 477.14C546.494 471.851 542.655 450.255 542.655 450.255C542.8 451.21 543.894 449.474 545.578 445.834C548.141 440.296 552.059 430.337 556.017 418.775C558.847 410.523 561.7 401.444 564.084 392.567H564.09C564.715 390.234 565.307 387.924 565.866 385.634C566.96 381.143 567.897 376.78 568.609 372.683C570.154 363.858 570.664 356.277 569.477 351.347C568.493 347.244 566.341 344.981 562.626 345.369C564.616 345.039 567.533 344.727 571.127 344.432C571.775 344.38 572.446 344.328 573.14 344.27C599.945 342.244 657.454 341.081 657.454 341.081L675.069 372.625L697.378 412.583C697.378 412.583 696.77 466.186 697.459 509.871Z" fill="#2F2E41"/>
<path d="M623.524 204.742L582.941 196.134L574.883 212.353L547.747 228.064C547.747 228.064 565.239 299.582 565.139 309.641C564.886 335.178 524.024 392.425 554.888 388.021C585.752 383.617 592.021 365.17 601.929 368.087C610.865 370.718 621.776 382.42 629.081 374.05C636.385 365.681 638.958 375.346 643.577 375.68C645.772 375.838 644.45 365.111 649.973 376.013C655.496 386.915 684.783 372.24 674.856 362.314C658.325 345.782 654.965 223.919 654.965 223.919L636.562 218.256L623.524 204.742Z" fill="#05BEE7"/>
<path d="M546.98 464.467C548.61 462.522 549.418 460.018 549.231 457.488C549.043 454.957 547.876 452.599 545.977 450.916C545.585 450.58 545.167 450.277 544.725 450.01L551.511 416.708L535.824 407.32L531.461 453.944C530.496 455.86 530.192 458.042 530.597 460.149C531.002 462.256 532.093 464.17 533.7 465.591C534.622 466.391 535.693 467.002 536.851 467.388C538.009 467.775 539.232 467.929 540.45 467.843C541.668 467.757 542.857 467.431 543.949 466.885C545.041 466.34 546.015 465.584 546.815 464.662C546.871 464.598 546.926 464.533 546.98 464.467Z" fill="#A0616A"/>
<path d="M595.686 288.93C595.587 287.86 594.222 287.374 592.329 286.702C590.429 286.117 588.622 285.261 586.965 284.162C582.775 281.135 584.425 277.97 586.705 273.595C587.15 272.745 587.613 271.859 588.047 270.939C589.338 268.213 587.283 256.97 581.93 237.514C580.281 231.525 580.287 227.295 579.147 224.488C578.013 221.682 575.739 220.299 569.541 220.009C562.05 219.631 554.714 222.239 549.142 227.26C548.992 227.393 548.836 227.538 548.685 227.677C548.402 227.943 548.124 228.215 547.852 228.493C542.699 233.676 539.751 240.652 539.623 247.96L539.594 249.204L538.315 308.646L534.722 360.808L529.768 432.663L533.437 432.843L548.078 433.572L549.854 433.659L554.067 415.986L559.136 394.719L561 386.907L566.781 362.672L569.477 351.347L571.126 344.432L571.798 341.608L575.073 327.881C575.148 327.592 582.683 297.865 591.369 292.894C594.609 291.042 595.778 289.966 595.686 288.93Z" fill="#05BEE7"/>
<path d="M693.142 464.113C691.312 462.355 690.241 459.952 690.155 457.416C690.07 454.88 690.977 452.41 692.685 450.533C693.038 450.157 693.421 449.81 693.831 449.498L683.509 417.117L698.096 406.098L707.441 451.984C708.607 453.786 709.143 455.922 708.967 458.06C708.791 460.199 707.911 462.218 706.466 463.804C705.635 464.699 704.636 465.421 703.526 465.93C702.416 466.438 701.217 466.723 699.997 466.768C698.777 466.813 697.56 466.617 696.416 466.192C695.271 465.766 694.222 465.12 693.327 464.289C693.265 464.231 693.203 464.172 693.142 464.113Z" fill="#A0616A"/>
<path d="M700.279 393.851C700.279 393.851 688.902 353.821 692.371 349.488C695.841 345.155 685.594 344.308 690.009 336.238C694.425 328.167 688.33 326.817 688.33 326.817L685.023 308.262L679.11 262.684L678.931 261.328L677.211 248.068C676.73 244.281 675.491 240.629 673.567 237.332C671.643 234.034 669.074 231.158 666.014 228.876C665.857 228.757 665.698 228.642 665.538 228.527C664.81 228.003 664.066 227.517 663.307 227.07C657.631 223.722 650.965 222.456 644.457 223.49C632.194 225.4 636.011 229.973 634.022 242.224C630.79 262.145 629.951 273.541 631.527 276.116C632.058 276.983 632.616 277.813 633.148 278.609C635.886 282.72 637.865 285.685 634.023 289.15C632.491 290.417 630.788 291.459 628.963 292.246C627.157 293.121 625.849 293.748 625.867 294.823C625.887 295.865 627.164 296.805 630.583 298.297C634.725 300.109 639.174 306.963 642.819 313.965C645.71 319.609 648.289 325.407 650.543 331.334L681.866 419.427L686.974 433.794L688.737 433.515L703.209 431.221L706.839 430.646L700.279 393.851Z" fill="#05BEE7"/>
<path d="M606.402 195.525C624.688 195.525 639.512 180.702 639.512 162.416C639.512 144.129 624.688 129.306 606.402 129.306C588.116 129.306 573.292 144.129 573.292 162.416C573.292 180.702 588.116 195.525 606.402 195.525Z" fill="#A0616A"/>
<path d="M556.741 144.143C551.701 125.766 592.354 110.008 603.03 124.807C604.514 122.703 610 121.425 612.517 122.07C615.034 122.716 617.151 124.329 619.217 125.891C622.056 128.072 624.999 130.331 626.742 133.468C628.497 136.592 628.768 140.851 626.406 143.562C624.535 145.718 619.01 147.112 616.196 147.68C614.234 148.08 612.582 148.403 611.162 148.635C609.872 146.777 609.278 144.524 609.484 142.271C608.528 142.916 607.727 143.764 607.138 144.755C606.549 145.746 606.186 146.855 606.076 148.002C606.037 148.48 621.94 206.992 621.94 206.992C620.029 208.08 618.02 208.983 615.938 209.69C611.82 203.396 608.665 196.522 606.579 189.295C606.1 194.128 606.161 198.998 606.76 203.817C607.079 206.519 607.536 209.203 608.128 211.859C589.231 215.938 560.807 214.595 548.442 197.247C548.439 197.175 548.437 197.103 548.435 197.031C548.426 196.347 548.178 195.686 547.735 195.164C547.293 194.642 546.682 194.289 546.008 194.168C545.334 194.046 544.639 194.163 544.041 194.497C543.444 194.832 542.981 195.364 542.733 196.002C542.433 196.767 542.156 197.43 541.91 197.957C538.309 185.074 542.969 170.166 556.741 144.143Z" fill="#2F2E41"/>
<path d="M556.741 144.143C551.701 125.766 592.354 110.008 603.03 124.807C604.514 122.703 610 121.425 612.517 122.07C615.034 122.716 617.151 124.329 619.217 125.891C622.056 128.072 624.999 130.331 626.742 133.468C628.497 136.592 628.768 140.851 626.406 143.562C624.535 145.718 619.01 147.112 616.196 147.68C614.234 148.08 612.582 148.403 611.162 148.635C609.872 146.777 609.278 144.524 609.484 142.271C608.528 142.916 607.727 143.764 607.138 144.755C606.549 145.746 606.186 146.855 606.076 148.002C606.037 148.48 621.94 206.992 621.94 206.992C620.029 208.08 618.02 208.983 615.938 209.69C611.82 203.396 608.665 196.522 606.579 189.295C606.1 194.128 606.161 198.998 606.76 203.817C607.079 206.519 607.536 209.203 608.128 211.859C589.231 215.938 560.807 214.595 548.442 197.247C548.439 197.175 548.437 197.103 548.435 197.031C548.426 196.347 548.178 195.686 547.735 195.164C547.293 194.642 546.682 194.289 546.008 194.168C545.334 194.046 544.639 194.163 544.041 194.497C543.444 194.832 542.981 195.364 542.733 196.002C542.433 196.767 542.156 197.43 541.91 197.957C538.309 185.074 542.969 170.166 556.741 144.143Z" fill="#2F2E41"/>
<path d="M392.537 258.552C391.838 258.584 391.145 258.4 390.554 258.026C389.963 257.651 389.501 257.104 389.231 256.459C388.961 255.813 388.896 255.1 389.044 254.416C389.193 253.732 389.549 253.11 390.063 252.635C390.149 252.293 390.211 252.047 390.297 251.705C390.266 251.63 390.235 251.556 390.204 251.482C387.061 243.988 376.409 244.039 373.293 251.545C370.528 258.206 367.006 264.878 366.139 271.922C365.757 275.035 365.918 278.191 366.615 281.249C360.119 267.079 356.746 251.677 356.724 236.089C356.723 232.177 356.94 228.268 357.375 224.381C357.735 221.194 358.234 218.03 358.872 214.888C362.353 197.843 369.829 181.866 380.684 168.271C385.938 165.404 390.187 160.996 392.858 155.64C393.826 153.715 394.51 151.659 394.889 149.538C394.296 149.616 392.654 140.59 393.101 140.036C392.275 138.782 390.797 138.159 389.895 136.936C385.409 130.854 379.228 131.916 376.001 140.182C369.108 143.661 369.041 149.43 373.271 154.979C375.962 158.509 376.331 163.286 378.692 167.066C378.449 167.377 378.197 167.678 377.954 167.989C373.514 173.699 369.644 179.83 366.399 186.294C367.317 179.124 365.962 170.487 363.652 164.919C361.022 158.575 356.093 153.232 351.752 147.747C346.538 141.159 335.847 144.034 334.928 152.385C334.919 152.466 334.911 152.547 334.902 152.628C335.547 152.992 336.178 153.378 336.796 153.786C337.571 154.304 338.172 155.045 338.52 155.911C338.868 156.776 338.946 157.727 338.744 158.638C338.542 159.549 338.07 160.377 337.389 161.015C336.708 161.653 335.851 162.071 334.929 162.213L334.834 162.227C335.064 164.551 335.47 166.854 336.049 169.116C330.48 190.651 342.502 198.495 359.668 198.847C360.047 199.041 360.417 199.236 360.795 199.42C357.536 208.658 355.491 218.279 354.713 228.044C354.273 233.805 354.299 239.592 354.791 245.348L354.762 245.144C353.518 238.743 350.103 232.967 345.094 228.792C337.655 222.681 327.144 220.43 319.118 215.518C315.254 213.153 310.303 216.209 310.978 220.688C310.988 220.76 310.999 220.831 311.01 220.903C312.207 221.39 313.372 221.951 314.498 222.583C315.143 222.947 315.774 223.333 316.392 223.742C317.168 224.26 317.769 225.001 318.116 225.866C318.464 226.732 318.542 227.683 318.34 228.594C318.138 229.504 317.666 230.333 316.985 230.971C316.305 231.609 315.447 232.026 314.525 232.168L314.43 232.183C314.362 232.193 314.304 232.202 314.236 232.212C316.28 237.093 319.15 241.586 322.718 245.494C326.2 264.293 341.155 266.077 357.152 260.602H357.162C358.917 268.23 361.46 275.654 364.75 282.755H391.858C391.955 282.454 392.042 282.143 392.13 281.842C389.621 281.999 387.102 281.849 384.629 281.395C386.64 278.927 388.651 276.44 390.663 273.972C390.707 273.926 390.75 273.877 390.789 273.826C391.809 272.563 392.839 271.31 393.859 270.046L393.86 270.045C393.914 266.173 393.47 262.311 392.538 258.552L392.537 258.552Z" fill="#AEFFA1"/>
<path d="M266.05 122.226C265.435 123.659 246.464 123.506 245.596 124.782C238.897 134.639 263.045 176.576 256.346 186.445L255.413 187.558C257.598 186.55 259.697 185.366 261.69 184.016C261.869 179.977 262.048 175.924 262.239 171.884C264.246 174.451 265.865 177.298 267.046 180.335C268.606 179.235 269.885 177.197 276.57 173.188C279.277 170.215 282.397 167.647 285.834 165.562L266.05 122.226Z" fill="#2F2E41"/>
<path d="M279.826 203.005C277.732 201.642 275.344 200.797 272.859 200.541C270.373 200.285 267.863 200.626 265.535 201.534C263.208 202.443 261.131 203.894 259.477 205.766C257.822 207.638 256.638 209.878 256.022 212.299L227.194 287.414L177.642 259.281C177.424 256.048 176.188 252.966 174.111 250.479C172.034 247.991 169.222 246.225 166.079 245.434C162.936 244.643 159.623 244.868 156.616 246.076C153.609 247.284 151.061 249.414 149.339 252.159C147.617 254.905 146.809 258.125 147.03 261.359C147.251 264.592 148.491 267.672 150.571 270.158C152.651 272.643 155.465 274.406 158.608 275.193C161.752 275.98 165.065 275.752 168.07 274.54C178.506 285.678 223.747 331.341 242.476 313.499C258.219 298.502 280.938 240.38 286.407 220.309C287.283 217.099 287.118 213.694 285.935 210.585C284.752 207.475 282.613 204.821 279.826 203.005Z" fill="#FFB6B6"/>
<path d="M225.694 316.647L234.791 357.766L301.314 363.783L307.428 327.98L225.694 316.647Z" fill="#FFB6B6"/>
<path d="M327.308 422.09C327.278 422.68 327.242 423.263 327.199 423.853C326.561 432.372 325.832 442.199 325.042 452.967C323.796 470.055 322.404 489.514 321.001 509.871H181.469L208.53 428.534C208.53 428.534 219.456 422.518 213.893 412.413C208.331 402.307 219.276 410.36 219.378 395.927C219.48 381.495 229.288 366.14 229.288 366.14L230.899 344.288L231.816 344.306L304.429 345.515L305.754 345.54L307.984 364.299C321.525 380.413 328.434 401.072 327.308 422.09Z" fill="#2F2E41"/>
<path d="M267.213 183.078L300.325 181.372L315.704 205.674C315.704 205.674 344.641 210.511 342.635 244.61C340.629 278.708 307.427 308.63 307.427 308.63L308.847 303.764L306.382 310.807L306.698 314.762L310.061 318.95L310.407 323.281L307.428 330.134C307.815 330.755 308.021 331.472 308.021 332.204C308.021 332.936 307.817 333.653 307.43 334.275C307.044 334.896 306.491 335.397 305.834 335.72C305.177 336.043 304.443 336.176 303.715 336.103L255.871 331.308C254.782 328.312 253.908 324.727 249.542 330.695L245.035 330.258L226.299 328.443L225.197 324.426C224.57 322.144 224.472 319.748 224.911 317.422C225.35 315.096 226.313 312.901 227.728 311.003C226.101 305.908 226.527 300.378 228.916 295.591L229.006 295.412L230.996 293.754C230.996 293.754 209.229 261.052 234.216 236.421L244.245 219.372L255.467 205.681L267.213 183.078Z" fill="#FF6363"/>
<path d="M275.454 168.733C292.795 168.733 306.853 154.675 306.853 137.334C306.853 119.993 292.795 105.935 275.454 105.935C258.113 105.935 244.055 119.993 244.055 137.334C244.055 154.675 258.113 168.733 275.454 168.733Z" fill="#FFB6B6"/>
<path d="M299.301 182.566C296.744 180.43 294.965 177.509 294.239 174.257C293.658 178.205 293.81 182.227 294.686 186.12C292.986 187.399 291.337 188.613 289.777 189.713C288.596 186.676 286.977 183.829 284.97 181.262C284.779 185.302 284.6 189.355 284.421 193.394C282.429 194.744 280.329 195.928 278.144 196.936L279.077 195.823C285.776 185.954 268.441 167.788 275.14 157.931C277.019 155.17 268.53 133.348 262.061 132.363C256.309 131.494 256.552 133.156 250.978 134.37C250.399 131.956 249.5 129.631 248.306 127.454C248.624 129.879 248.55 132.339 248.089 134.741C246.107 134.818 244.548 133.555 242.438 133.233C228.976 131.174 230.344 116.614 234.09 111.998C237.848 107.396 250.326 106.015 256.079 104.52C256.603 104.008 257.792 104.328 258.316 103.842C269.341 93.7523 284.086 92.0814 297.355 96.5534C311.506 101.323 320.329 110.553 324.857 124.782L326.155 136.17C327.321 139.831 325.855 156.867 324.857 160.578C320.977 175.001 312.713 167.801 299.301 182.566Z" fill="#2F2E41"/>
<path d="M345.084 331.326L343.848 235.053C343.783 230.974 342.118 227.084 339.211 224.223C336.304 221.362 332.388 219.758 328.309 219.758H328.309C326.199 219.758 324.111 220.188 322.172 221.021C320.233 221.854 318.484 223.074 317.032 224.605C315.58 226.136 314.455 227.947 313.726 229.927C312.997 231.907 312.678 234.015 312.79 236.122L317.14 336.087L317.222 396.941C314.659 398.028 312.492 399.878 311.016 402.24C309.541 404.601 308.828 407.36 308.975 410.141C309.121 412.921 310.121 415.59 311.837 417.783C313.553 419.976 315.902 421.588 318.566 422.399C321.23 423.21 324.079 423.182 326.726 422.318C329.373 421.453 331.69 419.795 333.362 417.568C335.034 415.341 335.98 412.653 336.071 409.87C336.163 407.087 335.395 404.343 333.872 402.011L345.084 331.326Z" fill="#FFB6B6"/>
<path d="M507.136 455.88C507.136 455.88 505.225 490.264 504.346 509.874H438.529C437.174 492.028 436.718 478.917 436.718 478.917L433.117 509.874H366.589L362.465 452.54L382.396 403.134C382.396 403.134 490.41 395.643 500.43 405.146C510.442 414.642 507.136 455.88 507.136 455.88Z" fill="#2F2E41"/>
<path d="M445.951 199.89C465.806 199.89 481.902 183.794 481.902 163.939C481.902 144.084 465.806 127.988 445.951 127.988C426.096 127.988 410 144.084 410 163.939C410 183.794 426.096 199.89 445.951 199.89Z" fill="#FFB6B6"/>
<path d="M367 421C395.898 390.911 386.137 352.639 374.668 314.007L376.85 256.934C376.957 254.135 377.82 251.399 379.366 248.959C380.911 246.518 383.095 244.444 385.731 242.912L415.232 225.768L426.714 211L458.366 213.816L475.917 230.327L495.345 243.52C500.223 246.833 503.935 251.317 506.042 256.444C508.15 261.571 508.566 267.127 507.241 272.458L488.649 347.249C488.649 347.249 496.425 386.022 491.68 390.304C486.936 394.586 474.71 390.306 484.405 395.113C496.04 400.882 506.619 399.817 500.731 405.055C494.843 410.292 502.295 417.574 502.295 417.574L367 421Z" fill="#6C63FF"/>
<path d="M379.838 472.609L384.942 436.246L364.577 430.432L360.548 469.069C358.863 470.615 357.642 472.6 357.023 474.801C356.403 477.002 356.411 479.332 357.043 481.53C357.676 483.727 358.909 485.705 360.604 487.24C362.298 488.775 364.388 489.807 366.637 490.22C368.886 490.632 371.206 490.409 373.335 489.576C375.465 488.743 377.319 487.332 378.691 485.502C380.063 483.673 380.897 481.497 381.099 479.219C381.302 476.941 380.865 474.652 379.838 472.609Z" fill="#FFB6B6"/>
<path d="M424 208C424 208 374.232 225.034 373.046 237.497C371.859 249.961 372.253 257.591 367 307.464L367.277 441.81C367.277 441.81 400.643 449.322 397.221 441.29C393.799 433.258 394.993 429.479 394.993 429.479C394.993 429.479 402.147 426.51 400.356 417.079C398.565 407.648 407.546 360.91 407.546 360.91L413.214 277.088L424 208Z" fill="#6C63FF"/>
<path d="M490.089 470.683L487.372 434.065L508.075 429.594L509.569 468.412C511.15 470.064 512.238 472.125 512.712 474.362C513.186 476.599 513.027 478.924 512.252 481.075C511.477 483.227 510.117 485.119 508.326 486.54C506.534 487.961 504.382 488.854 502.111 489.119C499.839 489.384 497.539 489.01 495.469 488.039C493.398 487.068 491.64 485.539 490.391 483.624C489.142 481.709 488.452 479.483 488.398 477.197C488.345 474.911 488.93 472.655 490.089 470.683H490.089Z" fill="#FFB6B6"/>
<path d="M470 211C470 211 506.431 231.853 506.738 244.638C507.045 257.423 506.395 265.171 508 316.366L501.534 453.26C501.534 453.26 476.227 458.574 479.161 450.628C482.094 442.683 481.377 438.748 481.377 438.748C481.377 438.748 476.165 435.22 477.944 425.734C479.723 416.249 475.183 367.987 475.183 367.987L474.849 282.165L470 211Z" fill="#6C63FF"/>
<path d="M405.397 140.507C405.397 140.507 439.902 109.141 446.5 123.185C447.417 121.189 438.311 118.947 439.867 119.559C441.422 120.172 447.381 121.703 448.658 123.185C450.413 125.256 447.581 127.399 448.658 130.376C449.743 133.341 449.91 137.383 448.45 139.956C447.294 142.002 443.879 143.325 442.14 143.864C440.928 144.244 439.907 144.55 439.029 144.77C438.232 143.007 435.992 144.638 436.119 142.5C435.528 143.112 436.906 140.148 436.542 141.088C436.178 142.029 435.954 143.081 435.886 144.17C435.862 144.623 425.454 171.097 425.454 171.097C424.273 172.129 421.917 178.812 426.5 181.5C423.955 175.527 424.803 191.735 431.5 190.905C431.129 186.332 431.204 195.491 431.5 190.905C431.697 193.469 436.788 202.252 437.154 204.772C425.476 208.643 407.91 207.369 400.267 190.905C400.266 190.837 400.265 190.769 400.263 190.7C400.257 190.051 400.105 189.424 399.831 188.928C399.557 188.432 399.18 188.098 398.763 187.983C398.347 187.867 397.917 187.978 397.548 188.295C397.178 188.613 396.893 189.118 396.739 189.723C396.554 190.45 396.383 191.079 396.231 191.579C394.005 179.353 396.885 165.204 405.397 140.507Z" fill="#8F7650"/>
<path d="M484.844 141.258C484.844 141.258 452.894 109.582 446.786 123.766C445.936 121.749 454.368 119.485 452.927 120.104C451.487 120.722 445.969 120.503 444.788 122C443.163 124.091 445.785 128.021 444.788 131.027C443.783 134.021 443.628 138.104 444.98 140.702C446.051 142.768 449.212 144.104 450.822 144.648C451.945 145.032 452.891 145.341 453.703 145.564C454.441 143.783 456.609 145.954 456.491 143.795C457.038 144.413 455.669 140.895 456.006 141.845C456.343 142.795 456.55 143.858 456.613 144.957C456.635 145.415 466.273 172.15 466.273 172.15C467.366 173.192 469.548 179.941 465.304 182.655C467.661 176.623 466.875 190.995 460.674 190.157C460.949 194.788 461.017 187.535 460.674 192.153C460.492 194.743 455.778 203.612 455.439 206.157C466.253 210.066 482.517 208.78 489.594 192.153C489.595 192.084 489.596 192.015 489.597 191.947C489.603 191.29 489.744 190.658 489.998 190.157C490.251 189.656 490.601 189.319 490.986 189.202C491.372 189.086 491.77 189.197 492.112 189.518C492.454 189.839 492.718 190.348 492.86 190.96C493.032 191.693 493.19 192.328 493.331 192.833C495.392 180.487 492.726 166.198 484.844 141.258Z" fill="#8F7650"/>
<path d="M507.846 439.107C507.807 439.744 507.76 440.374 507.705 441.012C506.878 450.222 505.934 460.844 504.911 472.485C503.298 490.958 501.496 511.993 499.678 534H319L354.041 446.073C354.041 446.073 368.189 439.569 360.986 428.645C353.783 417.72 367.956 426.426 368.088 410.824C368.22 395.222 380.921 378.623 380.921 378.623L383.006 355L384.194 355.02L478.22 356.327L479.935 356.353L482.823 376.633C500.358 394.052 509.303 416.386 507.846 439.107Z" fill="#2F2E41"/>
</g>
<defs>
<clipPath id="clip0_135_2">
<rect width="562" height="427.874" fill="white" transform="translate(147 82)"/>
</clipPath>
</defs>
</svg>
